<?xml version="1.0" standalone="no"?>
<!DOCTYPE svg PUBLIC "-//W3C//DTD SVG 20010904//EN"
 "http://www.w3.org/TR/2001/REC-SVG-20010904/DTD/svg10.dtd">
<svg version="1.0" xmlns="http://www.w3.org/2000/svg"
 width="744.000000pt" height="492.000000pt" viewBox="0 0 744.000000 492.000000"
 preserveAspectRatio="xMidYMid meet">

<g transform="translate(0.000000,492.000000) scale(0.100000,-0.100000)"
fill="#000000" stroke="none">
<path d="M2914 4911 c-389 -6 -404 -8 -404 -51 0 -46 -28 -45 1050 -48 935 -3
1018 -2 1033 13 25 24 21 52 -10 72 -25 17 -72 18 -663 19 -349 0 -802 -2
-1006 -5z"/>
<path d="M6015 4869 c-261 -18 -636 -76 -875 -135 -258 -64 -712 -216 -976
-328 -201 -85 -475 -214 -509 -240 l-30 -24 -105 53 c-380 191 -969 396 -1446
504 -172 39 -272 56 -479 81 -196 23 -608 39 -618 23 -4 -6 2 -127 13 -269 11
-143 20 -275 20 -295 l0 -36 -118 -7 c-304 -17 -469 -27 -489 -32 -33 -6 -30
-33 23 -289 46 -227 105 -557 100 -563 -2 -1 -64 -19 -137 -38 -158 -42 -341
-101 -365 -119 -24 -17 -24 -15 306 -1185 123 -436 374 -1332 450 -1610 28
-102 63 -224 77 -272 26 -87 26 -88 59 -88 18 0 68 15 112 34 180 77 537 178
767 218 182 31 477 31 613 1 55 -12 95 -17 98 -11 7 12 8 11 -41 36 -49 24
-183 65 -285 86 -245 51 -557 49 -865 -5 -214 -37 -308 -50 -316 -42 -6 6
-615 2410 -643 2539 -7 30 -5 33 74 83 94 60 159 87 165 68 2 -7 12 -55 20
-107 9 -52 36 -189 60 -305 24 -115 55 -275 69 -355 15 -80 92 -478 173 -884
l146 -739 106 7 c58 3 167 10 241 16 180 12 517 12 676 0 178 -14 445 -54 642
-95 151 -32 276 -70 454 -138 40 -16 70 -22 74 -16 33 54 -605 310 -981 393
-328 72 -734 126 -955 126 -52 0 -58 2 -63 22 -46 183 -392 2192 -381 2209 5
9 139 53 191 62 39 8 36 19 58 -243 45 -543 56 -674 74 -875 11 -121 30 -335
42 -475 12 -140 25 -265 30 -278 12 -32 39 -39 195 -52 281 -22 642 -87 1059
-191 239 -60 371 -103 565 -186 296 -127 543 -260 725 -392 82 -60 105 -71
105 -51 0 13 -93 103 -172 168 l-57 46 92 55 c301 178 618 307 1031 420 388
106 858 190 1169 208 64 4 110 11 113 17 3 10 164 1857 164 1887 0 15 56 7
158 -23 44 -13 72 -26 72 -35 0 -15 -142 -869 -221 -1328 -70 -409 -150 -846
-159 -871 -8 -19 -21 -22 -147 -33 -383 -34 -461 -43 -594 -66 -376 -65 -781
-192 -1121 -353 -66 -31 -118 -61 -118 -69 0 -17 15 -14 220 52 240 78 509
129 875 166 146 15 665 15 820 -1 61 -6 144 -13 186 -17 l77 -6 17 99 c9 54
59 313 111 574 51 261 127 655 169 875 99 521 165 838 175 849 12 12 59 -9
149 -67 42 -27 78 -51 80 -53 6 -5 -47 -225 -300 -1234 -224 -890 -336 -1329
-345 -1338 -1 -2 -92 10 -201 27 -279 43 -444 54 -683 48 -266 -7 -433 -36
-542 -95 -27 -14 -48 -31 -48 -39 0 -16 -13 -16 138 3 185 24 389 22 537 -5
241 -44 522 -125 758 -217 84 -33 144 -51 150 -45 4 4 62 199 128 432 66 233
203 719 305 1079 312 1102 444 1586 444 1628 0 25 -104 66 -338 131 -95 27
-175 51 -177 53 -3 2 32 190 77 417 46 237 77 416 72 421 -12 11 -210 28 -442
39 -101 5 -185 11 -187 13 -1 1 7 134 20 293 13 172 18 294 13 300 -12 13
-219 15 -373 4z m113 -479 c-2 -60 -8 -114 -14 -120 -6 -6 -89 -19 -185 -30
-435 -49 -746 -114 -1042 -216 -151 -53 -447 -175 -447 -185 0 -14 10 -12 213
40 234 61 400 93 617 120 215 27 532 43 693 35 l127 -7 0 -41 c-1 -59 -45
-504 -51 -510 -3 -3 -74 -10 -159 -16 -263 -18 -476 -49 -685 -102 -77 -19
-105 -32 -93 -43 3 -3 79 2 169 12 173 18 533 22 679 6 l75 -8 -3 -75 c-7
-184 -140 -1641 -151 -1652 -3 -4 -78 -16 -166 -28 -361 -47 -716 -137 -1050
-267 -123 -48 -436 -200 -542 -264 -168 -101 -430 -281 -458 -314 -8 -10 -38
6 -125 68 -403 283 -858 492 -1345 615 -214 54 -289 69 -505 96 -122 16 -185
28 -191 37 -5 8 -9 36 -9 62 0 26 -7 112 -16 190 -8 78 -21 221 -28 317 -7 96
-33 390 -57 652 -29 316 -40 481 -34 487 32 32 404 37 738 12 124 -10 157 -8
157 10 0 40 -570 129 -827 129 -77 0 -84 2 -92 23 -8 22 -51 446 -51 504 0 27
5 34 26 39 45 11 573 -4 704 -20 230 -29 433 -68 667 -127 128 -32 244 -59
258 -59 33 0 32 15 -2 28 -16 6 -83 33 -150 61 -445 183 -934 299 -1426 337
-107 8 -107 8 -115 146 l-5 100 314 -5 c687 -11 1355 -124 2000 -339 254 -84
306 -93 260 -44 -12 13 -40 31 -62 41 -21 10 -39 21 -39 25 0 10 369 126 540
170 346 88 792 164 1140 195 253 22 243 21 509 23 l243 2 -4 -110z m377 -419
c86 -20 119 -32 118 -42 -17 -120 -76 -436 -83 -450 -6 -10 -26 -21 -46 -25
-38 -7 -192 0 -201 9 -6 7 25 481 33 515 8 29 28 28 179 -7z m-5461 -68 c10
-48 38 -482 33 -497 -7 -18 -190 -32 -229 -17 -31 12 -35 27 -74 294 -17 116
-24 191 -18 197 7 7 149 32 276 49 3 1 9 -11 12 -26z"/>
<path d="M3485 3784 c-211 -39 -322 -94 -567 -277 -97 -72 -252 -179 -345
-237 -352 -220 -469 -330 -558 -523 -84 -183 -91 -413 -18 -597 41 -101 90
-177 169 -260 85 -88 177 -157 413 -304 91 -58 242 -161 336 -230 260 -192
345 -235 547 -277 133 -28 313 -28 443 0 190 40 340 116 598 306 88 65 236
165 327 223 266 168 329 217 420 330 65 80 119 184 145 277 25 92 31 313 11
399 -22 93 -65 181 -136 274 -94 125 -178 196 -395 334 -110 69 -294 194 -410
277 -334 240 -459 290 -745 297 -110 2 -178 -1 -235 -12z m345 -69 c196 -29
328 -88 530 -237 263 -194 345 -250 478 -329 178 -107 222 -140 313 -236 83
-89 134 -177 171 -293 19 -62 23 -95 22 -190 -2 -196 -62 -345 -198 -488 -69
-73 -139 -123 -436 -312 -56 -36 -181 -124 -279 -197 -196 -147 -324 -219
-453 -257 -240 -69 -525 -47 -743 59 -38 19 -111 65 -162 102 -267 198 -337
247 -431 305 -388 237 -494 338 -574 549 -31 80 -32 90 -33 229 0 124 3 156
23 220 29 94 84 187 157 268 75 82 142 133 316 237 170 103 269 171 478 328
173 130 235 164 366 202 204 58 289 66 455 40z"/>
<path d="M3534 3691 c-191 -34 -326 -93 -474 -206 -287 -219 -290 -222 -605
-415 -278 -170 -407 -374 -407 -645 0 -158 42 -281 138 -406 69 -90 151 -157
309 -254 218 -134 347 -221 470 -317 251 -196 395 -265 602 -289 168 -20 413
21 555 92 80 40 124 70 278 190 124 96 301 215 505 339 308 187 435 388 422
670 -7 181 -78 342 -206 470 -77 77 -129 113 -341 240 -156 93 -257 163 -450
310 -269 206 -505 272 -796 221z m419 -84 c123 -33 212 -82 398 -223 79 -60
193 -141 252 -179 438 -283 494 -327 576 -455 62 -95 86 -182 86 -310 0 -190
-50 -315 -174 -440 -78 -79 -156 -135 -388 -279 -73 -45 -217 -145 -320 -222
-198 -147 -339 -227 -448 -254 -230 -58 -480 -31 -685 76 -41 21 -155 98 -252
171 -97 73 -263 187 -369 253 -241 150 -311 204 -381 297 -155 203 -187 408
-98 622 62 147 177 266 375 386 58 36 147 90 197 120 49 30 169 115 266 188
320 241 433 285 712 278 125 -3 174 -9 253 -29z"/>
<path d="M3505 3414 c-157 -38 -278 -91 -383 -169 -260 -191 -401 -446 -419
-757 -12 -217 54 -442 183 -624 58 -82 206 -220 291 -270 82 -49 225 -107 308
-125 91 -20 314 -17 410 5 257 58 486 218 630 440 105 161 145 302 145 511 0
138 -15 226 -61 370 -38 120 -87 199 -187 306 -182 193 -352 282 -607 319 -98
14 -239 11 -310 -6z m155 -141 c-26 -49 -25 -63 5 -92 14 -13 25 -27 25 -31 0
-19 -35 -41 -88 -56 -69 -20 -92 -38 -92 -74 0 -14 -7 -50 -16 -79 -14 -48
-14 -55 1 -77 22 -34 51 -30 128 16 59 36 69 39 92 28 20 -9 34 -9 57 0 24 9
38 8 63 -3 43 -17 75 -50 75 -75 0 -25 -25 -26 -135 -5 -87 17 -136 13 -202
-15 -141 -61 -182 -343 -65 -442 47 -39 95 -52 172 -44 59 5 71 3 93 -15 44
-34 52 -86 28 -195 -25 -111 -26 -166 -7 -267 17 -89 39 -145 61 -153 48 -19
111 45 194 197 29 53 86 138 127 190 98 125 148 220 147 279 -1 59 -32 129
-81 182 -52 58 -96 118 -87 118 5 0 50 -22 101 -50 103 -55 135 -61 158 -28
26 37 20 77 -21 126 -33 41 -34 44 -12 37 74 -23 128 -57 145 -93 29 -58 27
-326 -4 -437 -81 -297 -320 -531 -627 -617 -170 -47 -401 -21 -590 66 -116 54
-145 79 -145 125 0 46 24 131 56 193 13 26 24 59 24 73 0 45 -63 100 -183 160
-62 30 -140 73 -174 95 -61 39 -63 42 -63 83 0 67 19 216 36 282 38 147 156
335 270 429 44 37 47 38 41 15 -27 -107 -29 -130 -13 -154 9 -14 21 -25 27
-25 23 0 134 66 178 106 l46 42 0 85 c0 47 3 88 7 92 10 10 179 44 226 44 l42
1 -20 -37z"/>
<path d="M2883 4723 c-30 -6 -45 -27 -41 -60 3 -26 6 -28 63 -34 33 -4 350 -7
705 -8 490 -1 649 2 658 11 7 7 12 27 12 45 0 29 -4 33 -37 42 -37 11 -1309
14 -1360 4z"/>
<path d="M3450 4531 l-344 -6 -16 -27 c-13 -25 -13 -29 2 -45 14 -14 46 -19
160 -25 179 -11 733 0 765 15 31 14 30 52 -1 72 -31 20 -131 23 -566 16z"/>
</g>
</svg>
